<?xml version="1.0" encoding="UTF-8"?>
<svg id="Layer_1" data-name="Layer 1" xmlns="http://www.w3.org/2000/svg" version="1.1" viewBox="0 0 24 24">
  <defs>
    <style>
      .cls-1 {
        fill: #b50000;
        stroke-width: 0px;
      }
    </style>
  </defs>
  <path class="cls-1" d="M3,17h0c0-.6.4-1,1-1h16c.6,0,1,.4,1,1h0c0,.6-.4,1-1,1H4c-.6,0-1-.4-1-1ZM3,12h0c0-.6.4-1,1-1h16c.6,0,1,.4,1,1h0c0,.6-.4,1-1,1H4c-.6,0-1-.4-1-1ZM3,7h0c0-.6.4-1,1-1h16c.6,0,1,.4,1,1h0c0,.6-.4,1-1,1H4c-.6,0-1-.4-1-1Z"/>
</svg>