<?xml version="1.0" encoding="UTF-8"?>
<svg id="Layer_1" data-name="Layer 1" xmlns="http://www.w3.org/2000/svg" viewBox="0 0 504.18 458.54">
  <defs>
    <style>
      .cls-1 {
        fill: #d60303;
      }

      .cls-1, .cls-2 {
        stroke-width: 0px;
      }

      .cls-2 {
        fill: #212121;
      }
    </style>
  </defs>
  <path class="cls-2" d="M77.83,218.42h-32.61v-97.52L0,3.08h34.46l27.38,76.29h.62L88.6,3.08h33.84l-44.61,118.13v97.21Z"/>
  <path class="cls-2" d="M222.72,54.45v112.59c0,33.84-20,54.45-52.61,54.45s-52.6-20.61-52.6-54.45V54.45C117.51,20.61,137.51,0,170.12,0s52.61,20.61,52.61,54.45ZM150.12,54.76v111.98c0,16,7.08,24.61,20,24.61s20-8.61,20-24.61V54.76c0-16-7.08-24.61-20-24.61s-20,8.61-20,24.61Z"/>
  <path class="cls-2" d="M335.01,170.12c0,33.84-19.38,51.37-50.76,51.37s-50.14-17.54-50.14-51.37V3.08h31.38v166.12c0,15.69,7.08,21.53,18.46,21.53s18.46-5.85,18.46-21.53V3.08h32.61v167.04Z"/>
  <g>
    <path class="cls-1" d="M111.59,286.26v6.15l-31.38,3.08v-6.77c0-14.77-5.54-21.54-16.92-21.54-9.54,0-16.3,5.23-16.3,17.54v4.62c0,12,6.15,21.84,27.38,41.22,28.92,26.76,38.76,44.3,38.76,69.22v10.46c0,31.69-20,48.3-49.84,48.3s-50.45-17.54-50.45-49.22v-14.15l31.38-3.08v14.77c0,14.46,6.77,21.53,18.46,21.53,9.84,0,17.84-5.23,17.84-20.61v-6.77c0-13.54-6.15-23.38-27.38-42.76-28.92-26.76-38.76-44.3-38.76-67.68v-5.23c0-31.69,18.46-48.3,48.61-48.3s48.61,17.54,48.61,49.22Z"/>
    <path class="cls-1" d="M221.42,407.16c0,33.84-19.38,51.37-50.76,51.37s-50.14-17.54-50.14-51.37v-167.04h31.38v166.12c0,15.69,7.08,21.53,18.46,21.53s18.46-5.85,18.46-21.53v-166.12h32.61v167.04Z"/>
    <path class="cls-1" d="M333.7,288.73v19.38l-31.38,1.54v-17.54c0-17.23-6.46-24.92-18.46-24.92s-18.46,7.69-18.46,21.84v117.52c0,14.15,6.46,21.84,18.46,21.84s18.46-7.69,18.46-24.92v-24l31.38,1.54v25.84c0,32.61-18.77,51.68-50.76,51.68s-50.14-19.07-50.14-51.68v-118.13c0-32.61,18.46-51.68,50.14-51.68s50.76,19.07,50.76,51.68Z"/>
    <path class="cls-1" d="M454.37,455.46h-34.76l-31.99-94.14-14.15,27.69v66.45h-32.61v-215.34h32.61v89.83h.62l45.22-89.83h34.15l-44.3,85.52,45.22,129.82Z"/>
    <circle class="cls-1" cx="482.43" cy="436.79" r="21.75"/>
  </g>
</svg>